HIERARCHY
ROOT Hips
{
  OFFSET 0 0 0
  CHANNELS 6 Xposition Yposition Zposition Zrotation Yrotation Xrotation
  JOINT LeftThigh
  {
    OFFSET 8.409438 0 -5.917753
    CHANNELS 3 Zrotation Yrotation Xrotation
    JOINT LeftLeg
    {
      OFFSET 0 0 -42.358652
      CHANNELS 3 Zrotation Yrotation Xrotation
      JOINT LeftFoot
      {
        OFFSET 0 0 -39.357303
        CHANNELS 3 Zrotation Yrotation Xrotation
      }
    }
  }
  JOINT RightThigh
  {
    OFFSET -8.409438 0 -5.917753
    CHANNELS 3 Zrotation Yrotation Xrotation
    JOINT RightLeg
    {
      OFFSET 0 0 -42.358652
      CHANNELS 3 Zrotation Yrotation Xrotation
      JOINT RightFoot
      {
        OFFSET 0 0 -39.357303
        CHANNELS 3 Zrotation Yrotation Xrotation
      }
    }
  }
  JOINT SpineLow
  {
    OFFSET 0 0 4.719101
    CHANNELS 3 Zrotation Yrotation Xrotation
    JOINT SpineMid
    {
      OFFSET 0 0 12.899191
      CHANNELS 3 Zrotation Yrotation Xrotation
      JOINT Chest
      {
        OFFSET 0 0 12.899191
        CHANNELS 3 Zrotation Yrotation Xrotation
        JOINT LeftShoulder
        {
          OFFSET 7.550562 1.41573 9.438202
          CHANNELS 3 Zrotation Yrotation Xrotation
          JOINT LeftArm
          {
            OFFSET 9.155056 0 4.247191
            CHANNELS 3 Zrotation Yrotation Xrotation
            JOINT LeftForearm
            {
              OFFSET 0 0 25.771955
              CHANNELS 3 Zrotation Yrotation Xrotation
              JOINT LeftHand
              {
                OFFSET 0 0 25.197169
                CHANNELS 3 Zrotation Yrotation Xrotation
              }
            }
          }
        }
        JOINT RightShoulder
        {
          OFFSET -7.550562 1.41573 9.438202
          CHANNELS 3 Zrotation Yrotation Xrotation
          JOINT RightArm
          {
            OFFSET -9.155056 0 4.247191
            CHANNELS 3 Zrotation Yrotation Xrotation
            JOINT RightForearm
            {
              OFFSET 0 0 -25.771955
              CHANNELS 3 Zrotation Yrotation Xrotation
              JOINT RightHand
              {
                OFFSET 0 0 -25.197169
                CHANNELS 3 Zrotation Yrotation Xrotation
              }
            }
          }
        }
        JOINT Neck
        {
          OFFSET 0 0 15.101124
          CHANNELS 3 Zrotation Yrotation Xrotation
          JOINT Head
          {
            OFFSET 0 0 11.325843
            CHANNELS 3 Zrotation Yrotation Xrotation
            End Site
            {
              OFFSET 0 0 14.157303
            }
          }
        }
      }
    }
  }
}
MOTION
Frames: 16
Frame Time: 0.0
0.0  89.887642  0.0  -2.748565  -6.004982  -93.078524  8.497115  -16.070549  4.24204  -2.611644  -0.725651  8.19037  1.519705  -0.609126  0.468788  -17.166312  10.220227  1.633554  -9.614027  3.316226  2.534857  3.272931  -0.139845  0.196727  -1.783147  -0.545753  -0.404917  -4.865547  -1.520629  -1.066053  -4.865548  -1.520629  -1.066053  -8.229373  13.453021  8.773931  145.522296  30.912452  -161.005428  -43.081895  -6.145237  48.541917  88.592419  -1.106745  -4.437615  -4.37364  -14.557704  13.669081  81.050461  25.619877  43.671422  6.99478  23.956772  -41.26118  85.755716  -18.867116  -9.387394  -10.241852  -7.495233  -25.707559  -8.004299  -5.203467  -19.385417  
0.0  89.887642  0.0  -2.726428  -5.479836  -93.014032  8.209946  -16.076828  4.095088  -2.73131  -0.719711  8.140745  1.579891  -0.583461  0.51527  -17.427525  10.180706  1.362453  -10.139449  3.428113  2.995031  3.467962  -0.067982  0.216201  -1.839424  -0.535424  -0.413333  -5.019347  -1.493935  -1.088511  -5.019346  -1.493935  -1.08851  -8.44148  13.61396  8.76396  145.293515  30.341802  -161.35099  -43.248865  -6.258122  48.379182  88.514083  -1.351722  -4.636532  -4.634383  -14.448558  13.660772  80.807589  25.245883  43.171932  7.48508  23.544061  -40.077135  85.272097  -18.648254  -9.275807  -10.381922  -7.439054  -25.683856  -8.106859  -5.155744  -19.369014  
0.0  89.887642  0.0  -2.696317  -5.041131  -92.985555  8.037686  -16.079028  3.960625  -2.763782  -0.716499  8.18154  1.586749  -0.569022  0.522622  -17.408855  10.156336  1.142376  -10.294827  3.587219  3.619938  3.433119  -0.001584  0.205923  -1.874692  -0.522567  -0.410934  -5.115996  -1.459196  -1.082136  -5.115996  -1.459196  -1.082136  -8.608478  13.691617  8.808128  145.19869  29.721508  -161.468594  -43.16409  -6.459953  48.304521  88.452024  -1.535829  -4.69114  -4.946737  -14.248722  13.687147  80.432528  24.921835  42.538331  7.653915  22.974243  -39.317404  84.797551  -18.531929  -9.020864  -10.563547  -7.427829  -25.672724  -8.24257  -5.139896  -19.363015  
0.0  89.887642  0.0  -2.679898  -4.470089  -92.90744  7.726639  -16.100121  3.717727  -2.869354  -0.697867  8.219274  1.644637  -0.528915  0.577314  -17.699764  10.117558  0.743787  -11.253699  3.699075  4.218792  4.233453  0.178354  0.30282  -1.950194  -0.52104  -0.405094  -5.32255  -1.455757  -1.064612  -5.32255  -1.455757  -1.064612  -8.468621  13.774103  8.919998  145.110174  29.211969  -161.440248  -42.737029  -6.704879  48.304284  88.459768  -1.586306  -4.654244  -5.306585  -13.950448  13.567579  80.359606  24.341013  42.066378  7.281719  22.457503  -39.040596  84.365759  -18.533279  -8.596072  -10.699351  -7.427138  -25.729863  -8.345243  -5.132748  -19.40765  
0.0  89.887642  0.0  -2.649129  -3.979372  -92.845717  7.577285  -16.144788  3.460854  -2.900512  -0.622702  8.362444  1.621412  -0.523122  0.589278  -17.739659  10.108694  0.31617  -11.297284  3.886998  5.160218  4.214441  0.280172  0.284918  -1.999995  -0.508074  -0.383845  -5.459335  -1.419368  -1.00652  -5.459335  -1.419368  -1.00652  -8.472761  13.715944  8.96553  145.078865  28.80381  -161.380888  -42.188026  -6.913862  48.302966  88.510341  -1.516356  -4.547072  -5.404485  -13.709252  13.546072  79.807222  23.989081  41.48738  6.76757  22.237339  -39.13733  84.006872  -18.610321  -8.095688  -10.874353  -7.50248  -25.833512  -8.481005  -5.180321  -19.488472  
0.0  89.887642  0.0  -2.64755  -3.289775  -92.702331  7.216317  -16.271172  3.017149  -3.041052  -0.4964  8.52213  1.686562  -0.471793  0.686817  -18.067762  10.068227  -0.364655  -12.283406  4.067117  6.162196  5.114913  0.528006  0.391415  -2.034169  -0.500872  -0.361817  -5.553322  -1.398356  -0.946204  -5.553322  -1.398356  -0.946204  -8.788542  13.638152  8.896971  144.977935  28.523247  -161.340889  -41.714371  -7.045631  48.249453  88.53011  -1.392721  -4.364716  -5.715454  -13.60199  13.499579  79.281708  23.759317  41.109897  6.0817  22.119663  -39.554182  83.703201  -18.743308  -7.605936  -11.270911  -7.565111  -26.046765  -8.784088  -5.206996  -19.654372  
0.0  89.887642  0.0  -2.621432  -2.743752  -92.599729  7.164622  -16.403179  2.603253  -3.24882  -0.294404  8.782762  1.658844  -0.466351  0.698272  -18.00653  10.046177  -1.094366  -12.597471  4.34007  7.584898  5.164208  0.726084  0.373698  -2.096067  -0.498528  -0.350819  -5.722797  -1.391859  -0.915036  -5.722797  -1.391859  -0.915036  -8.823224  13.608785  8.897791  144.971631  28.246548  -161.293056  -41.319564  -7.079148  48.18973  88.516632  -1.245898  -4.130185  -5.835279  -13.458903  13.430634  78.726534  23.492494  40.749138  5.531417  21.990733  -40.144488  83.452101  -18.931245  -7.14196  -11.410565  -7.618541  -26.181659  -8.892939  -5.238855  -19.757971  
0.0  89.887642  0.0  -2.610075  -1.812549  -92.344039  6.699189  -16.562534  1.911085  -3.513969  -0.018288  9.142296  1.710402  -0.417415  0.753406  -18.196763  9.988816  -2.114704  -13.448658  4.721374  9.220121  5.437804  0.940705  0.406334  -2.199131  -0.496952  -0.33938  -6.004805  -1.387893  -0.881732  -6.004805  -1.387893  -0.881732  -9.138387  13.568887  8.696873  144.873999  28.114951  -161.264569  -41.282764  -7.03915  48.008388  88.494764  -1.072233  -3.843174  -5.962681  -13.324371  13.19721  77.885291  23.319744  40.218245  5.237714  21.935163  -40.7825  83.321093  -19.193858  -6.656806  -11.612247  -7.689389  -26.43057  -9.050694  -5.279029  -19.948081  
0.0  89.887642  0.0  -2.591568  -1.307136  -92.198317  6.77758  -16.735863  1.336102  -3.725266  0.316835  9.594552  1.708228  -0.418606  0.738527  -17.798143  10.000774  -3.27904  -14.317539  5.155109  11.322403  5.538046  1.179755  0.429467  -2.289307  -0.496076  -0.318322  -6.251779  -1.384668  -0.822382  -6.251779  -1.384668  -0.822382  -9.041551  13.511974  8.607744  144.887599  27.924832  -161.180009  -41.191552  -6.90996  47.856275  88.422653  -0.879151  -3.467454  -5.855256  -13.166271  12.902563  77.195522  23.032835  39.684529  5.127593  22.085399  -41.361711  83.305244  -19.536748  -6.163735  -11.604646  -7.800898  -26.61166  -9.052132  -5.359944  -20.084897  
0.0  89.887642  0.0  -2.544187  -0.643919  -91.949264  6.668847  -16.898324  0.58755  -3.716951  0.697593  10.209918  1.602285  -0.398709  0.677112  -17.627854  10.033634  -4.987989  -15.041415  5.71148  13.943298  5.467368  1.431616  0.508691  -2.375842  -0.490716  -0.297556  -6.488828  -1.369027  -0.764359  -6.488827  -1.369027  -0.764359  -9.413174  13.377678  8.37891  144.871215  27.729717  -161.03761  -41.301065  -6.863604  47.616471  88.360534  -0.630881  -3.101728  -5.853588  -12.962516  12.533612  76.761818  22.80767  39.134788  5.06735  22.526031  -41.878927  83.390778  -19.982379  -5.734447  -11.6977  -7.928307  -26.854974  -9.130745  -5.447309  -20.269942  
0.0  89.887642  0.0  -2.519481  -0.429044  -91.798006  6.98937  -17.146511  -0.121175  -3.65834  1.214101  10.92156  1.481484  -0.406627  0.61212  -17.871743  10.341618  -7.689493  -14.497882  6.166321  17.64936  5.334388  1.669179  0.659954  -2.415992  -0.468556  -0.249064  -6.599756  -1.304133  -0.633308  -6.599755  -1.304133  -0.633308  -9.574314  13.176783  8.178289  144.765233  27.569874  -160.998821  -41.263417  -6.790454  47.440411  88.377363  -0.288446  -2.801825  -5.559112  -12.831249  12.245944  76.627288  22.769868  38.620889  4.93571  23.169703  -42.394879  83.686336  -20.549717  -5.340321  -11.742588  -8.174469  -27.077953  -9.177943  -5.626448  -20.440356  
0.0  89.887642  0.0  -2.510055  -0.339236  -91.530094  7.405745  -17.444253  -1.041163  -4.29641  1.693494  11.206845  1.753313  -0.141402  0.872162  -18.436213  10.1068  -9.03229  -13.2371  6.590998  19.671521  5.448473  1.859294  0.953572  -2.422163  -0.446904  -0.207242  -6.61757  -1.240892  -0.521148  -6.617569  -1.240892  -0.521148  -10.005105  12.972684  7.879399  142.695804  28.081232  -160.958974  -32.892971  -3.86024  51.804641  88.705759  0.150317  -2.759435  -5.236357  -12.655159  11.934254  76.817999  22.849399  38.091296  4.80136  23.991873  -42.812247  84.114078  -21.204726  -5.038533  -11.855958  -8.440824  -27.32588  -9.27793  -5.817268  -20.630673  
0.0  89.887642  0.0  -2.580659  -0.786272  -91.246239  8.353244  -17.859084  -2.016586  -4.475779  2.323423  12.035588  1.55558  0.014568  0.741539  -17.508258  9.237287  -9.808298  -12.216926  7.327668  21.134518  5.593238  2.189507  1.297415  -2.341685  -0.42536  -0.168773  -6.398381  -1.177751  -0.419706  -6.398381  -1.177751  -0.419706  -10.494369  12.754103  7.677418  142.491115  28.048961  -161.039363  -32.720861  -3.816256  51.620455  88.875465  0.600235  -2.65046  -4.812195  -12.615488  11.746998  77.20341  23.119927  37.567814  4.735173  24.957205  -43.076646  84.673782  -21.936264  -4.823072  -12.020617  -8.761884  -27.533413  -9.418247  -6.047643  -20.792136  
0.0  89.887642  0.0  -2.590839  -0.139788  -90.258337  8.243427  -18.096589  -3.742339  -4.893194  2.974172  12.836166  1.620715  0.155438  0.778252  -17.668099  8.054917  -11.981607  -10.742955  7.974471  23.321251  5.577841  2.613059  1.534497  -2.436803  -0.37837  -0.235598  -6.657521  -1.056741  -0.605181  -6.657522  -1.056741  -0.605181  -11.072673  12.420071  7.429361  139.793625  28.818296  -161.174212  -34.768246  -4.369171  50.454515  89.102807  1.020328  -2.648516  -4.174026  -12.833711  11.649489  77.722181  23.701646  37.047243  4.780779  25.951872  -43.199317  85.402481  -22.722141  -4.631497  -12.185799  -9.219138  -27.738488  -9.564843  -6.380445  -20.953233  
0.0  89.887642  0.0  -2.933797  -1.849885  -89.917846  9.972783  -18.727221  -4.795997  -5.262078  3.627392  13.81826  1.603142  0.276941  0.663353  -15.703092  6.965389  -14.029293  -8.64037  8.051565  26.176819  5.146117  3.008478  1.683743  -2.199175  -0.348665  -0.192179  -6.008806  -0.969595  -0.493147  -6.008806  -0.969595  -0.493147  -11.627166  12.004945  7.205388  139.509718  28.865528  -161.416442  -34.686919  -4.152627  50.357336  89.318123  1.480057  -2.657743  -3.63773  -13.22688  11.58531  78.77544  24.390708  36.595509  4.99787  27.071659  -43.089359  86.297901  -23.448279  -4.466459  -12.296069  -9.794057  -27.893729  -9.674569  -6.805166  -21.07723  
0.0  89.887642  0.0  -3.266977  -3.981455  -89.608296  11.672181  -19.310603  -5.671359  -5.535728  4.2491  14.805043  1.481703  0.335307  0.539671  -13.422042  6.103792  -16.147883  -7.364369  8.117831  29.094356  5.125765  3.449609  1.715717  -1.930716  -0.291874  -0.160178  -5.275702  -0.810003  -0.414239  -5.275702  -0.810003  -0.414239  -12.188853  11.535555  7.163805  139.264151  29.000216  -161.632649  -34.77642  -3.810809  50.340869  89.430119  1.995342  -2.803479  -2.802089  -13.842806  11.817839  79.929125  25.427698  36.0617  5.443269  28.420623  -42.59366  87.312076  -24.166412  -4.305387  -12.32463  -10.432797  -27.949458  -9.724019  -7.283505  -21.125649  
